<svg xmlns="http://www.w3.org/2000/svg" version="1.1" xmlns:xlink="http://www.w3.org/1999/xlink" xmlns:svgjs="http://svgjs.dev/svgjs" width="1440" height="560" preserveAspectRatio="none" viewBox="0 0 1440 560"><g mask="url(&quot;#SvgjsMask1017&quot;)" fill="none"><path d="M1536 560L0 560 L0 302.69Q68.01 250.7, 120 318.71Q174.03 300.74, 192 354.76Q203.68 294.44, 264 306.11Q329.39 251.5, 384 316.89Q442.35 303.24, 456 361.58Q499.44 333.02, 528 376.46Q552.69 281.14, 648 305.83Q695.82 233.64, 768 281.46Q872.56 266.02, 888 370.58Q917.47 280.05, 1008 309.53Q1037.84 267.37, 1080 297.2Q1139.51 284.71, 1152 344.22Q1199.74 319.97, 1224 367.71Q1224.99 296.7, 1296 297.7Q1361.96 243.66, 1416 309.62Q1507.62 281.24, 1536 372.86z" fill="rgba(24, 47, 93, 0.17)"></path><path d="M1536 560L0 560 L0 415.57Q46.92 342.49, 120 389.41Q168.29 317.7, 240 365.99Q281.51 335.5, 312 377.02Q336.75 329.76, 384 354.51Q438.26 336.77, 456 391.04Q507.05 322.09, 576 373.13Q632.88 358.01, 648 414.89Q692.74 387.63, 720 432.37Q741.74 334.11, 840 355.85Q887.12 330.97, 912 378.09Q981.39 327.49, 1032 396.88Q1111.42 356.3, 1152 435.72Q1171.62 335.34, 1272 354.96Q1316.98 327.94, 1344 372.93Q1399.72 356.65, 1416 412.38Q1465.07 341.45, 1536 390.52z" fill="rgba(37, 70, 125, 0.2)"></path><path d="M1488 560L0 560 L0 430.19Q97.83 408.02, 120 505.86Q133.96 447.82, 192 461.78Q215.5 413.28, 264 436.78Q319.59 420.37, 336 475.95Q361.66 429.61, 408 455.26Q485.3 412.56, 528 489.86Q580.57 422.43, 648 474.99Q667.61 422.6, 720 442.2Q770.53 372.73, 840 423.25Q902.05 413.31, 912 475.36Q961.9 405.26, 1032 455.17Q1084.23 435.4, 1104 487.63Q1176.27 439.9, 1224 512.18Q1249.97 418.15, 1344 444.12Q1372.31 400.43, 1416 428.74Q1468.4 409.14, 1488 461.55z" fill="rgba(53, 108, 177, 0.17)"></path><path d="M1464 560L0 560 L0 567.48Q22.26 517.74, 72 540Q100.35 496.35, 144 524.7Q226.84 487.54, 264 570.38Q318.68 505.06, 384 559.73Q423.53 479.26, 504 518.79Q551.87 494.65, 576 542.52Q657.75 504.27, 696 586.03Q748.62 518.64, 816 571.26Q837.45 520.71, 888 542.17Q926.8 460.97, 1008 499.78Q1050.28 470.06, 1080 512.34Q1128.73 489.07, 1152 537.8Q1189.3 455.1, 1272 492.39Q1363.94 464.33, 1392 556.27Q1408.8 501.07, 1464 517.87z" fill="rgba(255, 255, 255, 0.21)"></path></g><defs><mask id="SvgjsMask1017"><rect width="1440" height="560" fill="#ffffff"></rect></mask></defs></svg>